<svg xmlns="http://www.w3.org/2000/svg" version="1.1" viewBox="-5.0 -10.0 110.0 135.0">
 <path d="m12.5 25c0-3.4531 2.7969-6.25 6.25-6.25h62.5c3.4531 0 6.25 2.7969 6.25 6.25s-2.7969 6.25-6.25 6.25h-62.5c-3.4531 0-6.25-2.7969-6.25-6.25zm68.75 18.75h-62.5c-3.4531 0-6.25 2.7969-6.25 6.25s2.7969 6.25 6.25 6.25h62.5c3.4531 0 6.25-2.7969 6.25-6.25s-2.7969-6.25-6.25-6.25zm0 25h-62.5c-3.4531 0-6.25 2.7969-6.25 6.25s2.7969 6.25 6.25 6.25h62.5c3.4531 0 6.25-2.7969 6.25-6.25s-2.7969-6.25-6.25-6.25z"/>
<text x="0.0" y="117.5" font-size="5.0" font-weight="bold" font-family="Arbeit Regular, Helvetica, Arial-Unicode, Arial, Sans-serif" fill="#000000">Created by shopping Icon</text><text x="0.0" y="122.5" font-size="5.0" font-weight="bold" font-family="Arbeit Regular, Helvetica, Arial-Unicode, Arial, Sans-serif" fill="#000000">from Noun Project</text></svg>